<svg width="800" height="800" viewBox="0 0 800 800" fill="none" xmlns="http://www.w3.org/2000/svg">
<rect width="434.563" height="304.194" rx="8" transform="matrix(0.866321 0.499488 -0.866321 0.499488 343.529 320)" fill="#D4D4D8"/>
<rect width="27.3202" height="137.32" transform="matrix(0.86601 0.500028 3.18351e-05 1 296 425.652)" fill="#C2410C"/>
<rect width="217.32" height="137.32" transform="matrix(0.86601 -0.500028 -3.18351e-05 1 319.66 439.313)" fill="#9A3412"/>
<rect width="217.32" height="27.3202" transform="matrix(0.866041 -0.499972 0.866041 0.499972 296 425.654)" fill="#7C2D12"/>
<path d="M425 363.5L440.054 307.762L384.257 322.593L425 363.5ZM286.496 424.19C286.623 420.879 286.803 417.497 287.036 414.058L277.059 413.382C276.82 416.914 276.634 420.394 276.504 423.809L286.496 424.19ZM287.413 409.008C287.951 402.392 288.675 395.597 289.574 388.708L279.658 387.414C278.739 394.455 277.998 401.412 277.446 408.198L287.413 409.008ZM290.261 383.67C291.209 376.991 292.318 370.246 293.576 363.514L283.746 361.677C282.461 368.552 281.329 375.44 280.36 382.264L290.261 383.67ZM294.541 358.503C295.869 351.8 297.343 345.131 298.952 338.571L289.24 336.188C287.594 342.899 286.088 349.714 284.731 356.559L294.541 358.503ZM300.197 333.624C301.926 326.924 303.795 320.365 305.792 314.028L296.255 311.022C294.201 317.538 292.284 324.268 290.514 331.126L300.197 333.624ZM307.351 309.206C309.562 302.54 311.914 296.162 314.391 290.172L305.15 286.351C302.571 292.588 300.136 299.192 297.86 306.058L307.351 309.206ZM316.36 285.554C319.245 278.994 322.274 272.992 325.422 267.683L316.819 262.584C313.429 268.304 310.22 274.675 307.206 281.529L316.36 285.554ZM328.029 263.485C332.074 257.282 336.213 252.361 340.363 248.861L333.915 241.217C328.796 245.536 324.043 251.291 319.653 258.022L328.029 263.485ZM343.952 246.192C349.239 242.791 354.332 241.85 359.484 243.329L362.244 233.717C353.823 231.3 345.778 233.127 338.542 237.781L343.952 246.192ZM363.327 244.869C367.543 247.029 372.168 250.932 377.099 257.18L384.949 250.985C379.441 244.006 373.765 238.982 367.889 235.97L363.327 244.869ZM379.897 260.935C383.214 265.638 386.605 271.332 390.047 278.125L398.967 273.605C395.353 266.473 391.719 260.346 388.068 255.17L379.897 260.935ZM392.217 282.54C394.878 288.114 397.558 294.331 400.251 301.232L409.567 297.596C406.797 290.5 404.021 284.056 401.242 278.233L392.217 282.54ZM402.086 306.035C404.306 311.967 406.532 318.362 408.76 325.243L418.274 322.162C416.004 315.153 413.729 308.616 411.452 302.53L402.086 306.035ZM410.276 330C412.214 336.171 414.152 342.711 416.089 349.632L425.719 346.937C423.756 339.923 421.788 333.283 419.817 327.004L410.276 330Z" fill="#166534"/>
<path fill-rule="evenodd" clip-rule="evenodd" d="M232.24 251.452C233.067 254.634 234.255 259.158 234.255 259.158L224.232 273.579L202.47 280.632L189.834 279.688L179.239 269.367C179.239 269.367 178.155 270.592 180.053 265.604C184.538 261.223 183.182 257.158 183.182 257.158L211.158 249.62C211.158 249.62 231.724 249.46 232.24 251.452Z" fill="#EBC3AE"/>
<path fill-rule="evenodd" clip-rule="evenodd" d="M204.953 438.686C203.752 443.136 202.903 448.881 205.78 451.02C209.039 453.453 213.853 453.059 218.893 455.029C223.924 456.999 226.923 461.956 235.685 463.043C237.942 463.238 247.159 464.74 247.159 458.843C247.159 452.934 223.937 443.093 223.257 439.426L204.953 438.686Z" fill="#C43856"/>
<path fill-rule="evenodd" clip-rule="evenodd" d="M223.257 439.426C222.572 436.443 223.391 419.48 228.418 405.362C225.424 399.119 217.55 399.526 217.55 399.526L207.575 404.05C207.575 404.05 208.719 427.758 206.548 433.728C206.188 434.711 205.529 436.551 204.953 438.685C204.953 438.685 205.321 444.179 213.88 444.859C222.438 445.535 223.257 439.426 223.257 439.426Z" fill="#EBC3AE"/>
<path fill-rule="evenodd" clip-rule="evenodd" d="M182.229 443.504C183.342 446.24 198.669 466.164 198.258 470.775C197.85 475.395 185.353 475.26 177.739 467.978C171.707 462.203 165.246 453.951 164.843 449.336C164.579 446.379 165.333 443.773 166.048 441.088L182.229 443.504Z" fill="#C43856"/>
<path fill-rule="evenodd" clip-rule="evenodd" d="M166.048 441.089C166.443 439.591 166.828 438.071 167.019 436.443C166.984 420.095 157.997 399.522 157.997 399.522L177.74 396.946C177.74 396.946 179.239 436.17 182.229 443.504C182.229 443.504 184.885 451.765 177.74 452.462C169.389 453.271 166.048 441.089 166.048 441.089Z" fill="#EBC3AE"/>
<path fill-rule="evenodd" clip-rule="evenodd" d="M234.255 259.158C232.812 260.154 210.396 277.502 192.664 275.264C183.733 274.129 180.054 265.605 180.054 265.605C180.054 265.605 167.591 275.813 165.745 291.088C164.566 303.067 162.712 347.547 161.264 358.947C159.817 370.346 153.781 376.862 153.833 384.187C153.638 393.695 158.539 401.544 158.539 401.544C158.539 401.544 172.245 406.449 177.74 396.946C179.785 389.348 177.74 377.949 177.74 377.949C177.74 377.949 197.235 351.608 204.03 306.816C207.835 344.006 216.588 357.051 218.772 373.879C216.792 376.087 207.306 386.677 207.575 404.051C214.699 411.947 228.418 405.362 228.418 405.362C228.418 405.362 241.799 383.629 240.842 376.048C238.874 360.575 244.308 302.76 235.343 275.342C235.568 268.808 235.174 265.981 234.255 259.158Z" fill="#0A0B09"/>
<path fill-rule="evenodd" clip-rule="evenodd" d="M177.739 377.948C177.739 377.948 172.986 383.711 161.034 386.222C171.902 389.482 177.739 377.948 177.739 377.948Z" fill="#1D1E1C"/>
<path fill-rule="evenodd" clip-rule="evenodd" d="M283.434 231.714C288.131 231.432 294.566 234.463 297.283 234.731C300 235 303.12 224.83 303.12 224.83C303.12 224.83 299.125 219.269 296.5 219C293.875 218.732 290.086 217.756 290.086 217.756C290.086 217.756 288.461 219.353 285.336 220.241C282.208 221.12 281.462 224.83 281.462 224.83C281.462 224.83 282.593 231.528 283.434 231.714Z" fill="#EBC3AE"/>
<path fill-rule="evenodd" clip-rule="evenodd" d="M240.841 188.818C240.841 188.818 253.009 210.811 258.508 220.782C266.659 219.695 274.598 221.392 285.336 220.241C285.033 222.042 283.434 231.714 283.434 231.714C283.434 231.714 265.498 240.052 249.608 234.082C246.583 233.281 224.232 197.165 224.232 197.165L229.895 186.844L240.841 188.818Z" fill="#EBC3AE"/>
<path fill-rule="evenodd" clip-rule="evenodd" d="M221.931 162.764C233.848 167.647 240.842 188.818 240.842 188.818C240.842 188.818 235.685 188.346 230.593 194.182C225.493 200.014 212.861 171.509 212.861 171.509C212.861 171.509 219.535 162.499 221.931 162.764Z" fill="#972E45"/>
<path fill-rule="evenodd" clip-rule="evenodd" d="M210.062 160.253L216.263 184.675L206.548 194.182L186.714 189.299L181.549 177.215L185.899 156.01L210.062 160.253Z" fill="#BD9D8D"/>
<path fill-rule="evenodd" clip-rule="evenodd" d="M161.992 212.634C163.617 223.769 176.115 235.437 183.182 257.157C185.613 259.197 187.802 263.128 201.655 263.128C215.509 263.128 232.24 251.451 232.24 251.451V223.492C232.24 223.492 239.758 219.695 240.777 213.72C242.142 198.524 220.674 177.622 218.503 165.95C216.597 165.95 208.043 165.95 208.043 165.95C208.043 165.95 214.963 180.878 205.187 183.865C195.407 186.848 185.899 169.478 185.899 169.478L161.992 189.787C161.992 189.787 160.359 201.507 161.992 212.634Z" fill="#C43856"/>
<path fill-rule="evenodd" clip-rule="evenodd" d="M227.599 141.25C227.491 143.705 224.206 170.158 221.082 172.461C210.621 178.843 190.835 161.027 190.835 161.027L205.187 129.985H229.228C229.228 129.985 229.774 136.228 227.599 141.25Z" fill="#EBC3AE"/>
<path fill-rule="evenodd" clip-rule="evenodd" d="M223.937 135.008C213.983 159.2 200.84 165.612 193.231 163.911C193.201 173.756 185.864 177.522 188.612 187.528C181.28 189.13 177.67 176.198 175.373 178.423C173.068 180.644 167.968 184.848 166.1 186.679C167.491 178.029 166.72 170.046 167.019 163.101C169.051 115.833 186.172 115.867 186.172 115.867C186.172 115.867 198.713 106.048 208.601 111.815C218.486 117.582 230.593 123.569 232.019 129.886C233.444 136.194 227.599 141.251 227.599 141.251C227.599 141.251 227.971 132.189 223.937 135.008Z" fill="#50351F"/>
<path fill-rule="evenodd" clip-rule="evenodd" d="M193.504 115.192C193.504 115.192 216.462 119.937 222.576 131.882C213.611 121.565 193.504 115.192 193.504 115.192Z" fill="#2D2119"/>
<path fill-rule="evenodd" clip-rule="evenodd" d="M224.232 150.442C224.232 150.442 226.823 159.806 226.511 161.027C226.208 162.257 221.931 161.027 221.931 161.027L224.232 150.442Z" fill="#EBC3AE"/>
<path fill-rule="evenodd" clip-rule="evenodd" d="M190.783 274.934C190.783 274.934 189.158 270.592 185.756 270.05C182.363 269.505 173.129 273.302 173.129 273.302C171.101 271.83 147.653 254.776 147.653 254.776C147.653 254.776 166.56 229.445 171.049 216.959L151.532 208.157C151.532 208.157 128.028 251.997 130.134 262.517C130.61 268.011 166.469 283.346 167.829 283.892C167.829 283.892 179.512 290.187 183.997 290.866C188.478 291.542 193.231 290.546 195.68 289.316C198.124 288.1 201.326 283.078 201.049 279.688C200.78 276.294 190.783 274.934 190.783 274.934Z" fill="#EBC3AE"/>
<path fill-rule="evenodd" clip-rule="evenodd" d="M171.049 216.959C171.863 215.942 186.579 195.741 176.591 190.247C157.438 180.471 151.8 205.716 151.531 208.157C149.217 215.084 167.829 220.782 171.049 216.959Z" fill="#972E45"/>
<path fill-rule="evenodd" clip-rule="evenodd" d="M188.343 225.943C192.958 246.295 212.523 233.541 212.523 233.541C212.523 233.541 195.948 240.33 188.343 225.943Z" fill="#972E45"/>
<path fill-rule="evenodd" clip-rule="evenodd" d="M204.03 306.816C204.03 306.816 216.848 302.495 225.566 288.355C222.303 303.027 204.03 306.816 204.03 306.816Z" fill="#1D1E1C"/>
<path fill-rule="evenodd" clip-rule="evenodd" d="M293.166 218.669C291.849 220.73 289.912 221.843 288.842 221.158C287.763 220.47 287.971 218.24 289.292 216.184C290.605 214.128 292.551 213.011 293.617 213.699C294.696 214.387 294.492 216.608 293.166 218.669Z" fill="#EBC3AE"/>
<path fill-rule="evenodd" clip-rule="evenodd" d="M308.489 221.682C308.489 222.925 306.357 223.933 303.731 223.933C301.092 223.933 298.965 222.925 298.965 221.682C298.965 220.448 301.092 219.444 303.731 219.444C306.357 219.444 308.489 220.448 308.489 221.682Z" fill="#EBC3AE"/>
<path fill-rule="evenodd" clip-rule="evenodd" d="M308.181 225.484C308.181 226.748 305.811 227.774 302.895 227.774C299.974 227.774 297.604 226.748 297.604 225.484C297.604 224.215 299.974 223.189 302.895 223.189C305.811 223.189 308.181 224.215 308.181 225.484Z" fill="#EBC3AE"/>
<path fill-rule="evenodd" clip-rule="evenodd" d="M305.612 229.203C305.612 230.259 303.766 231.108 301.474 231.108C299.19 231.108 297.335 230.259 297.335 229.203C297.335 228.146 299.19 227.289 301.474 227.289C303.766 227.289 305.612 228.146 305.612 229.203Z" fill="#EBC3AE"/>
<path fill-rule="evenodd" clip-rule="evenodd" d="M303.731 232.134C303.731 233.095 302.037 233.879 299.948 233.879C297.864 233.879 296.174 233.095 296.174 232.134C296.174 231.173 297.864 230.389 299.948 230.389C302.037 230.389 303.731 231.173 303.731 232.134Z" fill="#EBC3AE"/>
</svg>
