<svg width="800" height="800" viewBox="0 0 800 800" fill="none" xmlns="http://www.w3.org/2000/svg">
<rect width="434.563" height="304.194" rx="8" transform="matrix(0.866321 0.499488 -0.866321 0.499488 343.529 306)" fill="#D4D4D8"/>
<path fill-rule="evenodd" clip-rule="evenodd" d="M225.778 422.637C229.459 424.617 233.819 425.505 237.589 427.362C247.364 432.188 251.099 439.816 264.069 440.143C278.128 440.501 281.961 430.031 276.613 424.821C275.633 423.867 233.953 405.138 230.592 404.78C220.588 403.715 215.172 416.938 225.778 422.637Z" fill="#2F292D"/>
<path fill-rule="evenodd" clip-rule="evenodd" d="M223.05 411.071C222.34 419.161 233.351 421.772 240.515 423.717C242.003 424.121 243.522 424.579 244.69 425.459C246.088 426.516 246.825 428.051 247.814 429.4C251.517 434.441 260.249 438.371 268.276 436.617C273.454 435.491 273.642 434.206 275.728 431.584C277.004 429.973 278.523 429.281 277.97 427.474C276.99 424.256 273.907 420.149 265.764 416.919C260.479 414.82 256.142 411.367 252.434 407.522C248.726 403.677 245.153 399.586 240.245 396.898C236.866 395.053 223.352 395.445 225.23 403.958C225.765 406.384 223.266 408.595 223.05 411.071Z" fill="#6A7C72"/>
<path d="M235.5 406.5C236.618 404.264 228 402 229 400C230 399.5 232.6 398.5 235 398.5C238 398.5 238.5 400 242 401.5C244.8 402.7 247.5 408.5 248 409.5C248.5 410.5 266 422.5 266 424C266 425.5 264.5 426 263 425.5C261.5 425 258.5 421 256.5 420C254.5 419 247 411.5 245.5 411L245.5 411C244 410.5 235 407.5 235.5 406.5Z" fill="#C4C4C4" stroke="black"/>
<line x1="245.743" y1="412.571" x2="250.743" y2="409.571" stroke="black"/>
<line x1="248.935" y1="414.959" x2="253.55" y2="412.184" stroke="black"/>
<line x1="251.742" y1="417.346" x2="256.358" y2="414.571" stroke="black"/>
<line x1="254.55" y1="419.734" x2="259.165" y2="416.959" stroke="black"/>
<line x1="257.742" y1="422.346" x2="262.358" y2="419.571" stroke="black"/>
<line x1="260.935" y1="424.959" x2="265.55" y2="422.184" stroke="black"/>
<path fill-rule="evenodd" clip-rule="evenodd" d="M279.778 452.637C283.459 454.617 287.819 455.505 291.589 457.362C301.364 462.188 305.099 469.816 318.069 470.143C332.128 470.501 335.961 460.031 330.613 454.821C329.633 453.867 287.953 435.138 284.592 434.78C274.588 433.715 269.172 446.938 279.778 452.637Z" fill="#2F292D"/>
<path fill-rule="evenodd" clip-rule="evenodd" d="M277.05 441.071C276.34 449.161 287.351 451.772 294.515 453.717C296.003 454.121 297.522 454.579 298.69 455.459C300.088 456.516 300.825 458.051 301.814 459.4C305.517 464.441 314.249 468.371 322.276 466.617C327.454 465.491 327.642 464.206 329.728 461.584C331.004 459.973 332.523 459.281 331.97 457.474C330.99 454.256 327.907 450.149 319.764 446.919C314.479 444.82 310.142 441.367 306.434 437.522C302.726 433.677 299.153 429.586 294.245 426.898C290.866 425.053 277.352 425.445 279.23 433.958C279.765 436.384 277.266 438.595 277.05 441.071Z" fill="#6A7C72"/>
<path d="M289.5 436.5C290.618 434.264 282 432 283 430C284 429.5 286.6 428.5 289 428.5C292 428.5 292.5 430 296 431.5C298.8 432.7 301.5 438.5 302 439.5C302.5 440.5 320 452.5 320 454C320 455.5 318.5 456 317 455.5C315.5 455 312.5 451 310.5 450C308.5 449 301 441.5 299.5 441L299.5 441C298 440.5 289 437.5 289.5 436.5Z" fill="#C4C4C4" stroke="black"/>
<line x1="299.743" y1="442.571" x2="304.743" y2="439.571" stroke="black"/>
<line x1="302.935" y1="444.959" x2="307.55" y2="442.184" stroke="black"/>
<line x1="305.742" y1="447.346" x2="310.358" y2="444.571" stroke="black"/>
<line x1="308.55" y1="449.734" x2="313.165" y2="446.959" stroke="black"/>
<line x1="311.742" y1="452.346" x2="316.358" y2="449.571" stroke="black"/>
<line x1="314.935" y1="454.959" x2="319.55" y2="452.184" stroke="black"/>
<path fill-rule="evenodd" clip-rule="evenodd" d="M333.778 482.637C337.459 484.617 341.819 485.505 345.589 487.362C355.364 492.188 359.099 499.816 372.069 500.143C386.128 500.501 389.961 490.031 384.613 484.821C383.633 483.867 341.953 465.138 338.592 464.78C328.588 463.715 323.172 476.938 333.778 482.637Z" fill="#2F292D"/>
<path fill-rule="evenodd" clip-rule="evenodd" d="M331.05 471.071C330.34 479.161 341.351 481.772 348.515 483.717C350.003 484.121 351.522 484.579 352.69 485.459C354.088 486.516 354.825 488.051 355.814 489.4C359.517 494.441 368.249 498.371 376.276 496.617C381.454 495.491 381.642 494.206 383.728 491.584C385.004 489.973 386.523 489.281 385.97 487.474C384.99 484.256 381.907 480.149 373.764 476.919C368.479 474.82 364.142 471.367 360.434 467.522C356.726 463.677 353.153 459.586 348.245 456.898C344.866 455.053 331.352 455.445 333.23 463.958C333.765 466.384 331.266 468.595 331.05 471.071Z" fill="#6A7C72"/>
<path d="M343.5 466.5C344.618 464.264 336 462 337 460C338 459.5 340.6 458.5 343 458.5C346 458.5 346.5 460 350 461.5C352.8 462.7 355.5 468.5 356 469.5C356.5 470.5 374 482.5 374 484C374 485.5 372.5 486 371 485.5C369.5 485 366.5 481 364.5 480C362.5 479 355 471.5 353.5 471L353.5 471C352 470.5 343 467.5 343.5 466.5Z" fill="#C4C4C4" stroke="black"/>
<line x1="353.743" y1="472.571" x2="358.743" y2="469.571" stroke="black"/>
<line x1="356.935" y1="474.959" x2="361.55" y2="472.184" stroke="black"/>
<line x1="359.742" y1="477.346" x2="364.358" y2="474.571" stroke="black"/>
<line x1="362.55" y1="479.734" x2="367.165" y2="476.959" stroke="black"/>
<line x1="365.742" y1="482.346" x2="370.358" y2="479.571" stroke="black"/>
<line x1="368.935" y1="484.959" x2="373.55" y2="482.184" stroke="black"/>
<path fill-rule="evenodd" clip-rule="evenodd" d="M387.778 512.637C391.459 514.617 395.819 515.505 399.589 517.362C409.364 522.188 413.099 529.816 426.069 530.143C440.128 530.501 443.961 520.031 438.613 514.821C437.633 513.867 395.953 495.138 392.592 494.78C382.588 493.715 377.172 506.938 387.778 512.637Z" fill="#2F292D"/>
<path fill-rule="evenodd" clip-rule="evenodd" d="M385.05 501.071C384.34 509.161 395.351 511.772 402.515 513.717C404.003 514.121 405.522 514.579 406.69 515.459C408.088 516.516 408.825 518.051 409.814 519.4C413.517 524.441 422.249 528.371 430.276 526.617C435.454 525.491 435.642 524.206 437.728 521.584C439.004 519.973 440.523 519.281 439.97 517.474C438.99 514.256 435.907 510.149 427.764 506.919C422.479 504.82 418.142 501.367 414.434 497.522C410.726 493.677 407.153 489.586 402.245 486.898C398.866 485.053 385.352 485.445 387.23 493.958C387.765 496.384 385.266 498.595 385.05 501.071Z" fill="#6A7C72"/>
<path d="M397.5 496.5C398.618 494.264 390 492 391 490C392 489.5 394.6 488.5 397 488.5C400 488.5 400.5 490 404 491.5C406.8 492.7 409.5 498.5 410 499.5C410.5 500.5 428 512.5 428 514C428 515.5 426.5 516 425 515.5C423.5 515 420.5 511 418.5 510C416.5 509 409 501.5 407.5 501L407.5 501C406 500.5 397 497.5 397.5 496.5Z" fill="#C4C4C4" stroke="black"/>
<line x1="407.743" y1="502.571" x2="412.743" y2="499.571" stroke="black"/>
<line x1="410.935" y1="504.959" x2="415.55" y2="502.184" stroke="black"/>
<line x1="413.742" y1="507.346" x2="418.358" y2="504.571" stroke="black"/>
<line x1="416.55" y1="509.734" x2="421.165" y2="506.959" stroke="black"/>
<line x1="419.742" y1="512.346" x2="424.358" y2="509.571" stroke="black"/>
<line x1="422.935" y1="514.959" x2="427.55" y2="512.184" stroke="black"/>
<path fill-rule="evenodd" clip-rule="evenodd" d="M441.778 542.637C445.459 544.617 449.819 545.505 453.589 547.362C463.364 552.188 467.099 559.816 480.069 560.143C494.128 560.501 497.961 550.031 492.613 544.821C491.633 543.867 449.953 525.138 446.592 524.78C436.588 523.715 431.172 536.938 441.778 542.637Z" fill="#2F292D"/>
<path fill-rule="evenodd" clip-rule="evenodd" d="M439.05 531.071C438.34 539.161 449.351 541.772 456.515 543.717C458.003 544.121 459.522 544.579 460.69 545.459C462.088 546.516 462.825 548.051 463.814 549.4C467.517 554.441 476.249 558.371 484.276 556.617C489.454 555.491 489.642 554.206 491.728 551.584C493.004 549.973 494.523 549.281 493.97 547.474C492.99 544.256 489.907 540.149 481.764 536.919C476.479 534.82 472.142 531.367 468.434 527.522C464.726 523.677 461.153 519.586 456.245 516.898C452.866 515.053 439.352 515.445 441.23 523.958C441.765 526.384 439.266 528.595 439.05 531.071Z" fill="#6A7C72"/>
<path d="M451.5 526.5C452.618 524.264 444 522 445 520C446 519.5 448.6 518.5 451 518.5C454 518.5 454.5 520 458 521.5C460.8 522.7 463.5 528.5 464 529.5C464.5 530.5 482 542.5 482 544C482 545.5 480.5 546 479 545.5C477.5 545 474.5 541 472.5 540C470.5 539 463 531.5 461.5 531L461.5 531C460 530.5 451 527.5 451.5 526.5Z" fill="#C4C4C4" stroke="black"/>
<line x1="461.743" y1="532.571" x2="466.743" y2="529.571" stroke="black"/>
<line x1="464.935" y1="534.959" x2="469.55" y2="532.184" stroke="black"/>
<line x1="467.742" y1="537.346" x2="472.358" y2="534.571" stroke="black"/>
<line x1="470.55" y1="539.734" x2="475.165" y2="536.959" stroke="black"/>
<line x1="473.742" y1="542.346" x2="478.358" y2="539.571" stroke="black"/>
<line x1="476.935" y1="544.959" x2="481.55" y2="542.184" stroke="black"/>
<rect width="27.3202" height="17.3202" transform="matrix(0.86601 0.500028 3.18351e-05 1 410 586.652)" fill="#C2410C"/>
<rect width="217.32" height="17.3202" transform="matrix(0.86601 -0.500028 -3.18351e-05 1 433.66 600.312)" fill="#9A3412"/>
<rect width="217.32" height="27.3202" transform="matrix(0.866041 -0.499972 0.866041 0.499972 410 586.654)" fill="#7C2D12"/>
<path d="M504.5 547.762L527.123 494.644L469.81 501.611L504.5 547.762ZM229.472 399.599C231.915 397.241 234.377 395.023 236.854 392.937L230.415 385.287C227.76 387.521 225.131 389.892 222.528 392.402L229.472 399.599ZM240.623 389.877C246.007 385.663 251.461 382.061 256.964 379.024L252.132 370.269C246.146 373.572 240.248 377.472 234.46 382.002L240.623 389.877ZM261.229 376.787C267.229 373.803 273.29 371.466 279.385 369.723L276.636 360.109C269.95 362.02 263.32 364.579 256.776 367.833L261.229 376.787ZM284.069 368.502C290.45 366.996 296.876 366.119 303.319 365.817L302.851 355.828C295.811 356.158 288.773 357.117 281.772 358.769L284.069 368.502ZM308.188 365.698C314.671 365.682 321.172 366.234 327.662 367.302L329.286 357.435C322.285 356.282 315.232 355.681 308.164 355.698L308.188 365.698ZM332.475 368.188C338.826 369.482 345.158 371.259 351.443 373.471L354.763 364.038C348.077 361.685 341.302 359.781 334.471 358.39L332.475 368.188ZM356.07 375.181C362.15 377.534 368.174 380.285 374.115 383.387L378.743 374.523C372.495 371.26 366.131 368.353 359.68 365.855L356.07 375.181ZM378.488 385.742C384.234 388.93 389.89 392.438 395.431 396.222L401.071 387.964C395.29 384.016 389.371 380.344 383.34 376.998L378.488 385.742ZM399.522 399.08C404.91 402.931 410.179 407.035 415.302 411.351L421.744 403.703C416.428 399.225 410.95 394.956 405.336 390.944L399.522 399.08ZM419.097 414.61C424.12 419.004 428.99 423.595 433.684 428.337L440.792 421.303C435.935 416.395 430.89 411.641 425.682 407.084L419.097 414.61ZM437.178 431.929C441.822 436.788 446.279 441.789 450.522 446.887L458.208 440.49C453.82 435.218 449.211 430.046 444.407 425.02L437.178 431.929ZM453.697 450.768C457.938 456.045 461.948 461.41 465.699 466.815L473.914 461.113C470.028 455.514 465.878 449.961 461.491 444.503L453.697 450.768ZM468.515 470.952C472.303 476.63 475.799 482.333 478.971 488.006L487.699 483.125C484.394 477.215 480.761 471.288 476.833 465.401L468.515 470.952ZM481.349 492.365C484.583 498.449 487.43 504.473 489.858 510.369L499.105 506.561C496.543 500.34 493.554 494.02 490.179 487.671L481.349 492.365ZM491.677 514.97C494.141 521.478 496.062 527.783 497.401 533.79L507.161 531.615C505.705 525.083 503.638 518.321 501.029 511.429L491.677 514.97Z" fill="#166534"/>
<path fill-rule="evenodd" clip-rule="evenodd" d="M176.972 194.286C195.29 202.428 187.301 227.02 187.301 227.02L167.8 212.537L169.286 197.122C169.286 197.122 173.688 193.177 176.972 194.286Z" fill="#C17730"/>
<path fill-rule="evenodd" clip-rule="evenodd" d="M203.68 255.453C203.68 255.453 195.911 251.008 189.929 246.383C182.16 247.059 189.748 268.343 189.748 268.343C189.748 268.343 197.264 269.133 202.519 268.579C203.923 272.646 206.637 274.864 206.637 274.864L213.788 271.91C213.788 271.91 215.731 266.046 215.102 262.962C213.788 257.231 203.68 255.453 203.68 255.453Z" fill="#EBC3AE"/>
<path fill-rule="evenodd" clip-rule="evenodd" d="M135.983 197.523C136.168 202.703 131.92 208.135 131.92 208.135L142.146 222.645L156.692 230.539L168.791 225.485L170.14 212.536L158.914 196.012L140.797 192.63C140.797 192.63 135.802 192.343 135.983 197.523Z" fill="#BD9D8D"/>
<path fill-rule="evenodd" clip-rule="evenodd" d="M175.725 445.273C181.114 452.243 203.188 459.763 205.037 463.339C206.885 466.914 202.323 469.754 202.323 469.754C202.323 469.754 187.156 472.464 173.507 464.818C169.782 464.239 159.107 465.187 155.189 461.919C151.276 458.65 156.633 444.353 156.633 444.353C156.633 444.353 170.325 438.307 175.725 445.273Z" fill="#EB902D"/>
<path fill-rule="evenodd" clip-rule="evenodd" d="M157.317 434.73C157.317 434.73 155.956 442.499 156.633 444.351C158.796 448.792 174.27 447.923 175.725 445.272C176.363 441.869 175.725 435.655 175.725 435.655L157.317 434.73Z" fill="#24427E"/>
<path fill-rule="evenodd" clip-rule="evenodd" d="M196.765 312.109C195.911 344.472 185.059 371.6 181.853 382.696C178.652 393.796 182.184 429.306 178.148 435.718C174.113 442.129 160.397 443.364 156.633 436.705C154.434 432.811 145.745 401.254 153.25 384.974C157.195 374.802 152.507 320.734 152.507 320.734C152.507 320.734 195.644 309.088 196.765 312.109Z" fill="#24427E"/>
<path fill-rule="evenodd" clip-rule="evenodd" d="M118.228 475.425C118.106 486.399 133.155 502.557 128.462 507.36C123.16 512.784 112.068 508.347 107.746 502.919C103.435 497.495 100.614 489.974 100.599 484.177C100.575 478.379 103.667 471.842 103.667 471.842C103.667 471.842 117.492 472.341 118.228 475.425Z" fill="#EB902D"/>
<path fill-rule="evenodd" clip-rule="evenodd" d="M103.678 460.38C103.678 460.38 103.557 464.88 103.678 472.463C103.8 480.047 117.984 480.11 118.228 475.425C118.539 469.501 119.707 461.367 119.707 461.367L103.678 460.38Z" fill="#24427E"/>
<path fill-rule="evenodd" clip-rule="evenodd" d="M130.059 307.091C123.652 313.895 124.218 340.284 124.218 340.284C124.218 340.284 112.804 383.441 112.399 398.234C109.999 405.452 106.396 411.304 103.187 422.404C99.9772 433.5 98.0106 458.158 103.187 464.326C108.367 470.489 116.745 471.229 121.434 465.313C127.68 457.419 123.577 442.578 133.521 420.43C149.305 385.274 165.483 342.007 165.483 342.007C165.483 342.007 189.992 333.621 195.663 300.573C188.513 303.535 134.807 302.988 130.059 307.091Z" fill="#385C9A"/>
<path fill-rule="evenodd" clip-rule="evenodd" d="M134.26 299.735L130.059 307.091C130.059 307.091 135.912 318.289 150.41 318.293C188.147 318.304 196.053 301.139 196.053 301.139L194.798 293.796L134.26 299.735Z" fill="#24427E"/>
<path fill-rule="evenodd" clip-rule="evenodd" d="M192.454 247.06L196.765 298.339C196.765 298.339 173.346 314.895 153.246 314.895C137.096 314.895 132.581 304.456 132.581 304.456C132.581 304.456 136.53 296.227 133.725 284.455C130.917 272.674 112.399 226.702 112.399 226.702L132.274 206.866C132.274 206.866 151.893 224.621 163.359 222.646C166.321 221.659 158.179 198.854 158.179 196.014C206.453 217.962 192.454 247.06 192.454 247.06Z" fill="#EB902D"/>
<path fill-rule="evenodd" clip-rule="evenodd" d="M140.797 255.136C140.797 255.136 146.469 266.173 154.584 267.899C165.082 270.672 192.454 247.061 192.454 247.061C192.454 247.061 164.224 273.205 153.738 270.672C145.974 267.534 140.797 255.136 140.797 255.136Z" fill="#C17730"/>
<mask id="mask0_7618_12211" style="mask-type:alpha" maskUnits="userSpaceOnUse" x="163" y="222" width="12" height="3">
<path d="M174.907 224.514L163.359 222.646L174.227 223.263L174.199 223.153C174.443 223.605 174.679 224.062 174.907 224.514Z" fill="white"/>
</mask>
<g mask="url(#mask0_7618_12211)">
<path fill-rule="evenodd" clip-rule="evenodd" d="M163.359 224.514H174.907V222.646H163.359V224.514Z" fill="#A46630"/>
</g>
<path fill-rule="evenodd" clip-rule="evenodd" d="M175.218 224.564L174.907 224.513C174.679 224.061 174.443 223.605 174.199 223.152L172.162 215.054C172.209 215.018 172.236 215.002 172.236 215.002C172.236 215.002 172.248 214.975 172.272 214.924L175.218 224.564Z" fill="#212E51"/>
<path fill-rule="evenodd" clip-rule="evenodd" d="M163.359 222.646L174.227 223.263L170.754 209.453L163.359 210.189V222.646Z" fill="#FFFFFE"/>
<path fill-rule="evenodd" clip-rule="evenodd" d="M180.28 178.226C181.362 180.846 180.434 190.955 180.28 192.249C180.127 193.543 178.974 193.543 178.148 193.916C177.873 203.443 172.236 215.003 172.236 215.003C172.236 215.003 166.938 218.661 164.098 218.331C156.692 217.469 150.041 208.344 148.377 206.865C146.713 205.382 145.974 200.206 145.974 200.206L144.121 198.971C140.054 200.76 139.503 199.097 139.503 199.097V190.404L142.827 178.226L156.633 168.208L174.227 166.91C174.227 166.91 179.202 175.599 180.28 178.226Z" fill="#EBC3AE"/>
<path fill-rule="evenodd" clip-rule="evenodd" d="M176.307 197.987C176.307 197.987 177.413 206.31 176.768 207.6C176.119 208.894 171.403 207.419 171.403 207.419L176.307 197.987Z" fill="#EBC3AE"/>
<path fill-rule="evenodd" clip-rule="evenodd" d="M144.121 198.971C144.121 198.971 140.302 195.274 141.289 193.673C146.339 188.858 149.675 196.505 152.507 196.753C154.973 191.325 159.292 191.081 160.649 189.968C162.002 188.858 159.292 186.27 161.88 183.556C164.468 180.846 171.127 185.904 176.555 184.052C179.635 182.325 182.223 175.052 180.618 168.02C180.001 165.313 176.477 164.224 173.102 162.599C167.709 160.003 160.92 157.895 153.49 159.638C132.789 164.57 129.572 192.929 134.012 198.971C139.747 206.775 144.121 198.971 144.121 198.971Z" fill="#50351F"/>
<path fill-rule="evenodd" clip-rule="evenodd" d="M158.674 161.49C175.316 170.859 174.211 179.737 174.211 179.737C174.211 179.737 171.127 170.246 158.674 161.49Z" fill="#2D2119"/>
<path fill-rule="evenodd" clip-rule="evenodd" d="M129.477 280.52C129.977 282.613 129.646 288.757 128.584 291.817C143.134 293.792 161.129 303.448 164.35 304.152C167.312 306.37 163.788 312.137 161.691 312.105C150.823 312.105 128.116 312.243 123.408 310.811C116.808 308.805 109.103 303.597 108.241 298.787C107.376 293.98 107.628 276.41 107.628 276.41C107.628 276.41 128.989 278.424 129.477 280.52Z" fill="#EBC3AE"/>
<path fill-rule="evenodd" clip-rule="evenodd" d="M105.531 274.565C105.555 276.198 105.59 277.452 105.653 278.133C106.023 290.279 134.26 287.506 134.26 280.292C134.26 279.584 134.225 278.125 134.162 276.21L105.531 274.565Z" fill="#FFFFFE"/>
<path fill-rule="evenodd" clip-rule="evenodd" d="M134.162 276.21C134.103 274.29 133.21 250.887 133.21 250.887C133.21 250.887 134.441 225.914 119.959 224.62C105.464 223.326 105.653 245.829 105.653 245.829C105.653 245.829 105.5 273.189 105.531 274.566C106.208 284.364 134.134 283.53 134.162 276.21Z" fill="#C17730"/>
<path fill-rule="evenodd" clip-rule="evenodd" d="M128.584 291.818C123.499 293.517 119.844 297.494 119.844 297.494C119.844 297.494 121.74 291.114 128.584 291.818Z" fill="#BD9D8D"/>
<path fill-rule="evenodd" clip-rule="evenodd" d="M161.691 312.106C161.691 312.106 170.761 316.605 176.894 317.593C183.022 318.58 190.896 318.348 193.976 315.453C197.064 312.554 198.318 305.938 193.878 303.413C189.437 300.884 176.894 304.424 176.894 301.832C176.894 300.353 176.894 299.043 176.894 298.052C170.754 298.787 168.909 303.228 164.35 304.152C163.477 304.707 161.691 312.106 161.691 312.106Z" fill="#EBC3AE"/>
<mask id="mask1_7618_12211" style="mask-type:alpha" maskUnits="userSpaceOnUse" x="130" y="206" width="3" height="3">
<path d="M130.913 208.222C130.881 208.163 130.862 208.135 130.862 208.135L130.854 208.143L132.274 206.216C132.274 206.216 132.474 206.416 132.864 206.774C132.773 206.912 132.691 207.042 132.608 207.164C132.388 206.967 132.274 206.865 132.274 206.865L130.913 208.222Z" fill="white"/>
</mask>
<g mask="url(#mask1_7618_12211)">
<path fill-rule="evenodd" clip-rule="evenodd" d="M130.854 208.222H132.864V206.216H130.854V208.222Z" fill="#246A7A"/>
</g>
<path fill-rule="evenodd" clip-rule="evenodd" d="M161.483 222.799C150.823 222.799 135.098 209.351 132.608 207.164C132.691 207.042 132.773 206.912 132.864 206.774C135.664 209.355 148.125 220.14 163.359 222.645C162.757 222.748 162.128 222.799 161.483 222.799Z" fill="#816C61"/>
<path fill-rule="evenodd" clip-rule="evenodd" d="M159.567 233.407C153.191 232.192 148.035 229.993 143.905 227.429C136.156 217.234 131.44 209.135 130.913 208.222L132.274 206.865C132.274 206.865 132.388 206.968 132.608 207.164C135.098 209.351 150.823 222.799 161.483 222.799C162.128 222.799 162.757 222.748 163.359 222.646L159.567 233.407ZM135.428 220.423C130.7 215.283 128.978 210.696 128.978 210.696L129.147 210.468C129.737 211.53 131.853 215.251 135.428 220.423Z" fill="#A46630"/>
<path fill-rule="evenodd" clip-rule="evenodd" d="M143.905 227.429C140.369 225.234 137.584 222.772 135.428 220.423C131.853 215.251 129.737 211.53 129.147 210.468L130.854 208.144L130.862 208.136C130.862 208.136 130.881 208.163 130.913 208.222C131.44 209.135 136.156 217.234 143.905 227.429Z" fill="#212E51"/>
<path fill-rule="evenodd" clip-rule="evenodd" d="M132.274 204.646C132.274 204.646 146.021 219.794 163.359 222.645L158.674 231.834C139.189 229.426 128.462 209.823 128.462 209.823L132.274 204.646Z" fill="#FFFFFE"/>
<path fill-rule="evenodd" clip-rule="evenodd" d="M208.793 269.369C209.328 269.586 209.772 269.405 210.071 269.185L210 269.354C210 269.354 209.528 269.963 208.687 269.629C207.853 269.283 207.935 268.516 207.935 268.516L208.01 268.343C208.065 268.709 208.258 269.149 208.793 269.369Z" fill="#94292A"/>
<path fill-rule="evenodd" clip-rule="evenodd" d="M213.135 264.178C213.135 264.178 207.204 263.002 205.343 266.884C203.522 270.684 204.742 278.306 206.822 278.534C209.595 278.845 210.838 279.891 212.608 278.645C215.306 276.749 217.643 269.244 216.762 265.956C215.94 262.872 213.949 262.18 213.949 262.18L213.135 264.178Z" fill="#EBC3AE"/>
</svg>
