<svg width="800" height="800" viewBox="0 0 800 800" fill="none" xmlns="http://www.w3.org/2000/svg">
<rect width="509.717" height="356.802" rx="8" transform="matrix(0.865532 0.500854 -0.865532 0.500854 333.823 306)" fill="#D4D4D8"/>
<path fill-rule="evenodd" clip-rule="evenodd" d="M526.638 568.899C526.638 569.694 527.144 570.49 528.155 571.096C530.177 572.31 533.456 572.31 535.479 571.096C536.49 570.49 536.996 569.694 536.996 568.899V144.041C536.996 143.246 536.49 142.45 535.479 141.844C533.456 140.63 530.177 140.63 528.155 141.844C527.144 142.45 526.638 143.246 526.638 144.041V568.899Z" fill="#71717A"/>
<circle r="3.43553" transform="matrix(0.866041 -0.499972 0.866041 0.499972 531.817 143.936)" stroke="#A1A1AA"/>
<path fill-rule="evenodd" clip-rule="evenodd" d="M134.449 251.28C150.738 258.497 143.634 280.297 143.634 280.297L126.292 267.459L127.614 253.794C127.614 253.794 131.528 250.297 134.449 251.28Z" fill="#C17730"/>
<path fill-rule="evenodd" clip-rule="evenodd" d="M158.198 305.503C158.198 305.503 151.29 301.563 145.97 297.463C139.062 298.063 145.809 316.93 145.809 316.93C145.809 316.93 152.494 317.63 157.167 317.139C158.415 320.744 160.829 322.711 160.829 322.711L167.188 320.092C167.188 320.092 168.916 314.893 168.356 312.16C167.188 307.079 158.198 305.503 158.198 305.503Z" fill="#EBC3AE"/>
<path fill-rule="evenodd" clip-rule="evenodd" d="M97.9982 254.151C98.1626 258.743 94.385 263.558 94.385 263.558L103.479 276.421L116.414 283.419L127.173 278.938L128.373 267.46L118.39 252.812L102.279 249.813C102.279 249.813 97.8373 249.559 97.9982 254.151Z" fill="#BD9D8D"/>
<path fill-rule="evenodd" clip-rule="evenodd" d="M133.34 473.772C138.132 479.951 157.761 486.617 159.405 489.787C161.049 492.956 156.992 495.474 156.992 495.474C156.992 495.474 143.504 497.876 131.367 491.098C128.055 490.585 118.562 491.426 115.078 488.528C111.598 485.631 116.361 472.956 116.361 472.956C116.361 472.956 128.537 467.597 133.34 473.772Z" fill="#EB902D"/>
<path fill-rule="evenodd" clip-rule="evenodd" d="M116.97 464.428C116.97 464.428 115.76 471.314 116.362 472.956C118.285 476.893 132.046 476.122 133.34 473.772C133.906 470.756 133.34 465.247 133.34 465.247L116.97 464.428Z" fill="#24427E"/>
<path fill-rule="evenodd" clip-rule="evenodd" d="M152.049 355.727C151.29 384.416 141.64 408.464 138.789 418.301C135.942 428.14 139.083 459.619 135.494 465.303C131.906 470.986 119.709 472.081 116.362 466.178C114.406 462.726 106.68 434.751 113.353 420.32C116.862 411.303 112.692 363.373 112.692 363.373C112.692 363.373 151.052 353.049 152.049 355.727Z" fill="#24427E"/>
<path fill-rule="evenodd" clip-rule="evenodd" d="M82.2095 500.503C82.101 510.231 95.4835 524.555 91.3106 528.812C86.5956 533.62 76.7319 529.687 72.8879 524.875C69.0544 520.067 66.5465 513.4 66.5323 508.261C66.5115 503.121 69.2607 497.326 69.2607 497.326C69.2607 497.326 81.5554 497.769 82.2095 500.503Z" fill="#EB902D"/>
<path fill-rule="evenodd" clip-rule="evenodd" d="M69.2711 487.166C69.2711 487.166 69.1627 491.155 69.2711 497.877C69.3795 504.6 81.9925 504.656 82.2093 500.503C82.4856 495.252 83.5245 488.041 83.5245 488.041L69.2711 487.166Z" fill="#24427E"/>
<path fill-rule="evenodd" clip-rule="evenodd" d="M92.7307 351.278C87.0328 357.31 87.5365 380.703 87.5365 380.703C87.5365 380.703 77.386 418.96 77.0257 432.074C74.892 438.472 71.6881 443.66 68.8339 453.5C65.9797 463.336 64.2309 485.195 68.8339 490.662C73.4405 496.126 80.8907 496.781 85.0601 491.537C90.6145 484.539 86.9663 471.384 95.8087 451.75C109.845 420.585 124.232 382.23 124.232 382.23C124.232 382.23 146.026 374.796 151.07 345.5C144.711 348.126 96.9525 347.641 92.7307 351.278Z" fill="#385C9A"/>
<path fill-rule="evenodd" clip-rule="evenodd" d="M96.4663 344.757L92.7307 351.278C92.7307 351.278 97.9354 361.204 110.828 361.208C144.386 361.218 151.416 346.002 151.416 346.002L150.3 339.492L96.4663 344.757Z" fill="#24427E"/>
<path fill-rule="evenodd" clip-rule="evenodd" d="M148.216 298.062L152.049 343.519C152.049 343.519 131.224 358.195 113.35 358.195C98.9881 358.195 94.9727 348.941 94.9727 348.941C94.9727 348.941 98.4844 341.647 95.9905 331.211C93.4931 320.768 77.0256 280.014 77.0256 280.014L94.6998 262.431C94.6998 262.431 112.147 278.17 122.343 276.42C124.976 275.544 117.736 255.328 117.736 252.811C160.664 272.267 148.216 298.062 148.216 298.062Z" fill="#EB902D"/>
<path fill-rule="evenodd" clip-rule="evenodd" d="M102.28 305.221C102.28 305.221 107.323 315.005 114.539 316.536C123.875 318.994 148.216 298.062 148.216 298.062C148.216 298.062 123.112 321.239 113.787 318.994C106.883 316.211 102.28 305.221 102.28 305.221Z" fill="#C17730"/>
<mask id="mask0_7721_38865" style="mask-type:alpha" maskUnits="userSpaceOnUse" x="122" y="276" width="11" height="3">
<path d="M132.612 278.076L122.343 276.42L132.007 276.967L131.983 276.87C132.199 277.271 132.409 277.675 132.612 278.076Z" fill="white"/>
</mask>
<g mask="url(#mask0_7721_38865)">
<path fill-rule="evenodd" clip-rule="evenodd" d="M122.343 278.076H132.612V276.42H122.343V278.076Z" fill="#A46630"/>
</g>
<path fill-rule="evenodd" clip-rule="evenodd" d="M132.888 278.122L132.612 278.077C132.409 277.676 132.199 277.272 131.983 276.871L130.171 269.691C130.213 269.66 130.237 269.646 130.237 269.646C130.237 269.646 130.248 269.622 130.269 269.576L132.888 278.122Z" fill="#212E51"/>
<path fill-rule="evenodd" clip-rule="evenodd" d="M122.343 276.419L132.007 276.967L128.919 264.725L122.343 265.377V276.419Z" fill="#FFFFFE"/>
<path fill-rule="evenodd" clip-rule="evenodd" d="M137.39 237.043C138.352 239.365 137.526 248.326 137.39 249.474C137.254 250.621 136.229 250.621 135.494 250.952C135.249 259.397 130.237 269.645 130.237 269.645C130.237 269.645 125.526 272.887 123 272.595C116.414 271.831 110.499 263.742 109.02 262.431C107.54 261.116 106.882 256.527 106.882 256.527L105.235 255.433C101.618 257.019 101.129 255.544 101.129 255.544V247.838L104.084 237.043L116.361 228.162L132.007 227.012C132.007 227.012 136.432 234.714 137.39 237.043Z" fill="#EBC3AE"/>
<path fill-rule="evenodd" clip-rule="evenodd" d="M133.857 254.561C133.857 254.561 134.84 261.939 134.267 263.082C133.689 264.229 129.496 262.922 129.496 262.922L133.857 254.561Z" fill="#EBC3AE"/>
<path fill-rule="evenodd" clip-rule="evenodd" d="M105.235 255.433C105.235 255.433 101.839 252.156 102.717 250.736C107.208 246.469 110.174 253.247 112.692 253.467C114.885 248.655 118.726 248.439 119.933 247.452C121.136 246.469 118.726 244.174 121.027 241.768C123.329 239.366 129.251 243.85 134.078 242.208C136.816 240.677 139.118 234.23 137.691 227.996C137.142 225.597 134.008 224.631 131.007 223.191C126.211 220.889 120.174 219.021 113.567 220.565C95.158 224.938 92.2968 250.077 96.2458 255.433C101.346 262.351 105.235 255.433 105.235 255.433Z" fill="#50351F"/>
<path fill-rule="evenodd" clip-rule="evenodd" d="M118.177 222.207C132.976 230.513 131.993 238.382 131.993 238.382C131.993 238.382 129.251 229.969 118.177 222.207Z" fill="#2D2119"/>
<path fill-rule="evenodd" clip-rule="evenodd" d="M92.2131 327.726C92.6573 329.581 92.3635 335.027 91.4191 337.74C104.357 339.49 120.36 348.05 123.224 348.674C125.858 350.641 122.724 355.753 120.86 355.725C111.195 355.725 91.0028 355.847 86.816 354.578C80.9468 352.799 74.0946 348.183 73.3286 343.918C72.5591 339.658 72.783 324.082 72.783 324.082C72.783 324.082 91.7793 325.867 92.2131 327.726Z" fill="#EBC3AE"/>
<path fill-rule="evenodd" clip-rule="evenodd" d="M70.9187 322.445C70.9397 323.892 70.9712 325.005 71.0271 325.608C71.3559 336.375 96.4664 333.917 96.4664 327.522C96.4664 326.894 96.4349 325.601 96.3789 323.903L70.9187 322.445Z" fill="#FFFFFE"/>
<path fill-rule="evenodd" clip-rule="evenodd" d="M96.3788 323.903C96.3263 322.202 95.5324 301.455 95.5324 301.455C95.5324 301.455 96.6272 279.318 83.7484 278.171C70.8591 277.024 71.027 296.971 71.027 296.971C71.027 296.971 70.8906 321.226 70.9186 322.446C71.5202 331.132 96.3543 330.392 96.3788 323.903Z" fill="#C17730"/>
<path fill-rule="evenodd" clip-rule="evenodd" d="M91.419 337.74C86.8964 339.246 83.647 342.771 83.647 342.771C83.647 342.771 85.3329 337.115 91.419 337.74Z" fill="#BD9D8D"/>
<path fill-rule="evenodd" clip-rule="evenodd" d="M120.86 355.724C120.86 355.724 128.925 359.713 134.378 360.588C139.828 361.463 146.831 361.257 149.569 358.691C152.315 356.121 153.431 350.257 149.482 348.018C145.533 345.776 134.378 348.914 134.378 346.616C134.378 345.305 134.378 344.144 134.378 343.266C128.918 343.918 127.278 347.854 123.224 348.674C122.448 349.165 120.86 355.724 120.86 355.724Z" fill="#EBC3AE"/>
<mask id="mask1_7721_38865" style="mask-type:alpha" maskUnits="userSpaceOnUse" x="93" y="261" width="3" height="3">
<path d="M93.4897 263.634C93.4617 263.581 93.4443 263.557 93.4443 263.557L93.4373 263.564L94.6999 261.855C94.6999 261.855 94.8783 262.033 95.2246 262.351C95.1442 262.473 95.0707 262.588 94.9973 262.696C94.8014 262.521 94.6999 262.431 94.6999 262.431L93.4897 263.634Z" fill="white"/>
</mask>
<g mask="url(#mask1_7721_38865)">
<path fill-rule="evenodd" clip-rule="evenodd" d="M93.4373 263.634H95.2246V261.855H93.4373V263.634Z" fill="#246A7A"/>
</g>
<path fill-rule="evenodd" clip-rule="evenodd" d="M120.674 276.557C111.195 276.557 97.2114 264.635 94.9973 262.697C95.0708 262.589 95.1442 262.474 95.2247 262.352C97.7151 264.639 108.796 274.2 122.343 276.421C121.808 276.511 121.248 276.557 120.674 276.557Z" fill="#816C61"/>
<path fill-rule="evenodd" clip-rule="evenodd" d="M118.971 285.961C113.301 284.883 108.715 282.934 105.043 280.661C98.1522 271.623 93.9584 264.444 93.4897 263.635L94.6999 262.432C94.6999 262.432 94.8014 262.522 94.9972 262.697C97.2113 264.635 111.195 276.557 120.674 276.557C121.248 276.557 121.808 276.511 122.343 276.421L118.971 285.961ZM97.5051 274.451C93.3008 269.893 91.7688 265.828 91.7688 265.828L91.9192 265.626C92.4439 266.567 94.3257 269.865 97.5051 274.451Z" fill="#A46630"/>
<path fill-rule="evenodd" clip-rule="evenodd" d="M105.043 280.659C101.898 278.714 99.4219 276.531 97.5051 274.449C94.3257 269.864 92.4439 266.566 91.9192 265.624L93.4372 263.564L93.4442 263.557C93.4442 263.557 93.4617 263.581 93.4897 263.633C93.9584 264.442 98.1522 271.622 105.043 280.659Z" fill="#212E51"/>
<path fill-rule="evenodd" clip-rule="evenodd" d="M94.6999 260.465C94.6999 260.465 106.925 273.892 122.343 276.42L118.177 284.566C100.849 282.432 91.3105 265.053 91.3105 265.053L94.6999 260.465Z" fill="#FFFFFE"/>
<path fill-rule="evenodd" clip-rule="evenodd" d="M162.745 317.84C163.221 318.032 163.616 317.871 163.882 317.676L163.819 317.826C163.819 317.826 163.4 318.366 162.651 318.07C161.91 317.763 161.983 317.083 161.983 317.083L162.049 316.93C162.098 317.254 162.27 317.644 162.745 317.84Z" fill="#94292A"/>
<path fill-rule="evenodd" clip-rule="evenodd" d="M166.607 313.238C166.607 313.238 161.332 312.196 159.678 315.637C158.058 319.005 159.143 325.763 160.993 325.965C163.459 326.24 164.564 327.168 166.138 326.063C168.538 324.382 170.615 317.729 169.832 314.814C169.101 312.08 167.331 311.467 167.331 311.467L166.607 313.238Z" fill="#EBC3AE"/>
<rect width="260.832" height="4.84825" transform="matrix(0.866041 -0.499972 0.866041 0.499972 414 639.408)" fill="#FEF9C3"/>
<rect width="260.832" height="4.84825" transform="matrix(0.866041 -0.499972 0.866041 0.499972 229 523.408)" fill="#FEF9C3"/>
<path d="M566.5 514.5L601.411 560.484L623.779 507.258L566.5 514.5ZM272.297 459.859C274.564 462.359 276.836 464.824 279.111 467.252L286.409 460.415C284.171 458.026 281.935 455.601 279.703 453.141L272.297 459.859ZM282.527 470.868C287.124 475.695 291.734 480.378 296.352 484.92L303.364 477.79C298.823 473.325 294.29 468.72 289.769 463.972L282.527 470.868ZM299.946 488.423C304.739 493.056 309.54 497.537 314.345 501.872L321.043 494.446C316.324 490.189 311.606 485.786 306.895 481.233L299.946 488.423ZM318.082 505.212C323.109 509.665 328.139 513.957 333.166 518.093L339.519 510.371C334.586 506.312 329.649 502.099 324.713 497.726L318.082 505.212ZM336.953 521.18C342.209 525.424 347.462 529.499 352.704 533.408L358.682 525.391C353.543 521.559 348.392 517.564 343.235 513.4L336.953 521.18ZM356.634 536.309C362.092 540.297 367.537 544.107 372.963 547.744L378.531 539.437C373.218 535.876 367.883 532.143 362.534 528.235L356.634 536.309ZM377.044 550.45C382.7 554.158 388.333 557.679 393.935 561.018L399.056 552.429C393.576 549.162 388.064 545.717 382.527 542.087L377.044 550.45ZM398.158 563.505C404.012 566.909 409.83 570.117 415.603 573.134L420.235 564.271C414.595 561.324 408.909 558.189 403.185 554.86L398.158 563.505ZM419.952 575.375C426.002 578.448 432 581.313 437.935 583.978L442.031 574.855C436.242 572.256 430.389 569.461 424.482 566.459L419.952 575.375ZM442.431 585.963C448.656 588.666 454.81 591.148 460.879 593.419L464.384 584.054C458.477 581.843 452.483 579.425 446.414 576.79L442.431 585.963ZM465.625 595.158C472.039 597.459 478.355 599.523 484.557 601.362L487.399 591.775C481.378 589.99 475.241 587.984 469.001 585.746L465.625 595.158ZM489.393 602.757C495.992 604.607 502.456 606.2 508.768 607.551L510.861 597.772C504.756 596.466 498.494 594.923 492.093 593.128L489.393 602.757ZM513.615 608.546C520.37 609.876 526.941 610.925 533.305 611.711L534.53 601.786C528.409 601.03 522.073 600.019 515.546 598.735L513.615 608.546ZM538.359 612.284C545.323 613.004 552.026 613.404 558.435 613.507L558.595 603.508C552.489 603.41 546.077 603.029 539.388 602.337L538.359 612.284ZM563.393 613.527C570.545 613.468 577.308 613.029 583.633 612.242L582.398 602.319C576.485 603.055 570.108 603.472 563.311 603.527L563.393 613.527ZM588.654 611.53C595.968 610.361 602.656 608.697 608.615 606.583L605.273 597.158C599.965 599.041 593.878 600.568 587.076 601.655L588.654 611.53ZM613.361 604.74C620.714 601.619 626.878 597.672 631.451 592.939L624.258 585.991C620.85 589.52 615.92 592.79 609.453 595.536L613.361 604.74ZM635.044 588.583C639.712 581.857 641.326 574.044 639.321 565.802L629.604 568.166C630.912 573.542 629.917 578.431 626.829 582.881L635.044 588.583ZM637.534 560.464C635.042 554.611 630.812 548.784 624.928 543.068L617.96 550.241C623.161 555.293 626.491 560.056 628.334 564.382L637.534 560.464ZM621.067 539.538C616.44 535.543 610.945 531.566 604.556 527.637L599.318 536.156C605.33 539.853 610.376 543.52 614.533 547.108L621.067 539.538ZM600.038 524.953C594.703 521.889 588.799 518.851 582.307 515.856L578.118 524.936C584.371 527.821 590.007 530.724 595.057 533.624L600.038 524.953Z" fill="#166534"/>
<path fill-rule="evenodd" clip-rule="evenodd" d="M244.839 541.238C247.921 542.891 251.572 543.632 254.729 545.183C262.915 549.212 266.042 555.581 276.903 555.853C288.675 556.152 291.886 547.411 287.407 543.061C286.587 542.265 251.684 526.629 248.869 526.33C240.492 525.441 235.957 536.48 244.839 541.238Z" fill="#2F292D"/>
<path fill-rule="evenodd" clip-rule="evenodd" d="M242.554 531.582C241.96 538.336 251.18 540.516 257.179 542.14C258.425 542.477 259.697 542.859 260.676 543.595C261.846 544.477 262.463 545.758 263.291 546.885C266.392 551.093 273.705 554.374 280.426 552.91C284.762 551.97 284.92 550.898 286.666 548.708C287.735 547.363 289.007 546.785 288.544 545.277C287.723 542.59 285.142 539.161 278.322 536.465C273.897 534.712 270.265 531.829 267.16 528.619C264.055 525.409 261.063 521.994 256.953 519.75C254.123 518.209 242.807 518.536 244.38 525.644C244.828 527.669 242.735 529.515 242.554 531.582Z" fill="#6A7C72"/>
<path d="M252.98 527.767C253.916 525.9 246.699 524.01 247.537 522.34C248.374 521.923 250.551 521.088 252.561 521.088C255.073 521.088 255.492 522.34 258.423 523.593C260.767 524.594 263.028 529.437 263.447 530.271C263.866 531.106 278.52 541.125 278.52 542.377C278.52 543.629 277.264 544.047 276.008 543.629C274.752 543.212 272.24 539.873 270.565 539.038C268.89 538.203 262.61 531.941 261.353 531.524L261.353 531.524C260.097 531.106 252.561 528.602 252.98 527.767Z" fill="#C4C4C4" stroke="black"/>
<line y1="-0.5" x2="4.87891" y2="-0.5" transform="matrix(0.858175 -0.513357 0.515635 0.856808 261.772 533.193)" stroke="black"/>
<line y1="-0.5" x2="4.5059" y2="-0.5" transform="matrix(0.857715 -0.514125 0.516404 0.856345 264.446 535.186)" stroke="black"/>
<line y1="-0.5" x2="4.50589" y2="-0.5" transform="matrix(0.857715 -0.514125 0.516404 0.856345 266.797 537.18)" stroke="black"/>
<line y1="-0.5" x2="4.50589" y2="-0.5" transform="matrix(0.857715 -0.514125 0.516404 0.856345 269.148 539.172)" stroke="black"/>
<line y1="-0.5" x2="4.50589" y2="-0.5" transform="matrix(0.857715 -0.514125 0.516404 0.856345 271.821 541.354)" stroke="black"/>
<line y1="-0.5" x2="4.50589" y2="-0.5" transform="matrix(0.857715 -0.514125 0.516404 0.856345 274.494 543.535)" stroke="black"/>
<path fill-rule="evenodd" clip-rule="evenodd" d="M290.058 566.285C293.14 567.938 296.791 568.679 299.948 570.23C308.134 574.259 311.261 580.627 322.123 580.9C333.895 581.199 337.105 572.458 332.626 568.108C331.806 567.312 296.904 551.675 294.089 551.377C285.711 550.488 281.176 561.527 290.058 566.285Z" fill="#2F292D"/>
<path fill-rule="evenodd" clip-rule="evenodd" d="M287.774 556.629C287.179 563.383 296.4 565.563 302.398 567.187C303.644 567.524 304.916 567.906 305.895 568.641C307.065 569.524 307.682 570.805 308.51 571.932C311.611 576.14 318.924 579.421 325.645 577.957C329.981 577.017 330.139 575.944 331.885 573.755C332.954 572.41 334.226 571.832 333.763 570.324C332.943 567.637 330.361 564.208 323.542 561.512C319.116 559.759 315.484 556.876 312.379 553.666C309.274 550.456 306.282 547.041 302.173 544.797C299.343 543.256 288.026 543.583 289.599 550.69C290.047 552.716 287.954 554.562 287.774 556.629Z" fill="#6A7C72"/>
<path d="M298.199 552.814C299.135 550.947 291.918 549.057 292.756 547.387C293.593 546.97 295.77 546.135 297.78 546.135C300.292 546.135 300.711 547.387 303.642 548.639C305.987 549.641 308.248 554.483 308.666 555.318C309.085 556.153 323.739 566.172 323.739 567.424C323.739 568.676 322.483 569.094 321.227 568.676C319.971 568.259 317.459 564.919 315.784 564.085C314.109 563.25 307.829 556.988 306.573 556.571L306.573 556.571C305.317 556.153 297.78 553.649 298.199 552.814Z" fill="#C4C4C4" stroke="black"/>
<line y1="-0.5" x2="4.87891" y2="-0.5" transform="matrix(0.858175 -0.513357 0.515635 0.856808 306.991 558.24)" stroke="black"/>
<line y1="-0.5" x2="4.5059" y2="-0.5" transform="matrix(0.857715 -0.514125 0.516404 0.856345 309.665 560.232)" stroke="black"/>
<line y1="-0.5" x2="4.50589" y2="-0.5" transform="matrix(0.857715 -0.514125 0.516404 0.856345 312.016 562.227)" stroke="black"/>
<line y1="-0.5" x2="4.50589" y2="-0.5" transform="matrix(0.857715 -0.514125 0.516404 0.856345 314.367 564.219)" stroke="black"/>
<line y1="-0.5" x2="4.50589" y2="-0.5" transform="matrix(0.857715 -0.514125 0.516404 0.856345 317.04 566.4)" stroke="black"/>
<line y1="-0.5" x2="4.50589" y2="-0.5" transform="matrix(0.857715 -0.514125 0.516404 0.856345 319.713 568.582)" stroke="black"/>
<path fill-rule="evenodd" clip-rule="evenodd" d="M335.277 591.33C338.359 592.983 342.01 593.724 345.167 595.275C353.353 599.303 356.48 605.672 367.342 605.945C379.114 606.244 382.324 597.503 377.845 593.153C377.025 592.357 342.123 576.72 339.308 576.422C330.93 575.533 326.395 586.572 335.277 591.33Z" fill="#2F292D"/>
<path fill-rule="evenodd" clip-rule="evenodd" d="M332.993 581.674C332.398 588.428 341.619 590.608 347.617 592.232C348.863 592.569 350.135 592.951 351.114 593.686C352.284 594.569 352.901 595.85 353.729 596.977C356.83 601.185 364.143 604.466 370.864 603.002C375.2 602.062 375.358 600.989 377.104 598.8C378.173 597.455 379.445 596.877 378.982 595.368C378.162 592.682 375.58 589.253 368.761 586.557C364.335 584.804 360.703 581.921 357.598 578.711C354.493 575.501 351.501 572.085 347.392 569.842C344.562 568.301 333.245 568.628 334.818 575.735C335.266 577.761 333.173 579.607 332.993 581.674Z" fill="#6A7C72"/>
<path d="M343.418 577.859C344.354 575.992 337.137 574.102 337.975 572.432C338.812 572.015 340.989 571.18 342.999 571.18C345.511 571.18 345.93 572.432 348.861 573.684C351.206 574.686 353.467 579.528 353.885 580.363C354.304 581.198 368.958 591.217 368.958 592.469C368.958 593.721 367.702 594.139 366.446 593.721C365.19 593.304 362.678 589.964 361.003 589.129C359.328 588.295 353.048 582.033 351.792 581.616L351.792 581.616C350.536 581.198 342.999 578.694 343.418 577.859Z" fill="#C4C4C4" stroke="black"/>
<line y1="-0.5" x2="4.87891" y2="-0.5" transform="matrix(0.858175 -0.513357 0.515635 0.856808 352.21 583.285)" stroke="black"/>
<line y1="-0.5" x2="4.5059" y2="-0.5" transform="matrix(0.857715 -0.514125 0.516404 0.856345 354.884 585.277)" stroke="black"/>
<line y1="-0.5" x2="4.50589" y2="-0.5" transform="matrix(0.857716 -0.514125 0.516405 0.856345 357.235 587.271)" stroke="black"/>
<line y1="-0.5" x2="4.50589" y2="-0.5" transform="matrix(0.857715 -0.514125 0.516404 0.856345 359.586 589.264)" stroke="black"/>
<line y1="-0.5" x2="4.50589" y2="-0.5" transform="matrix(0.857715 -0.514125 0.516404 0.856345 362.259 591.445)" stroke="black"/>
<line y1="-0.5" x2="4.50589" y2="-0.5" transform="matrix(0.857715 -0.514125 0.516404 0.856345 364.932 593.627)" stroke="black"/>
<path fill-rule="evenodd" clip-rule="evenodd" d="M380.496 616.376C383.579 618.03 387.229 618.771 390.387 620.322C398.572 624.35 401.7 630.719 412.561 630.992C424.333 631.291 427.543 622.549 423.065 618.2C422.244 617.404 387.342 601.767 384.527 601.469C376.149 600.579 371.615 611.619 380.496 616.376Z" fill="#2F292D"/>
<path fill-rule="evenodd" clip-rule="evenodd" d="M378.212 606.721C377.617 613.475 386.838 615.655 392.837 617.279C394.082 617.616 395.354 617.998 396.333 618.733C397.503 619.616 398.121 620.897 398.949 622.024C402.05 626.232 409.362 629.513 416.084 628.049C420.419 627.108 420.577 626.036 422.323 623.847C423.392 622.502 424.664 621.924 424.201 620.415C423.381 617.728 420.799 614.3 413.98 611.604C409.554 609.851 405.922 606.968 402.817 603.758C399.713 600.548 396.721 597.132 392.611 594.889C389.781 593.348 378.464 593.675 380.037 600.782C380.485 602.808 378.393 604.654 378.212 606.721Z" fill="#6A7C72"/>
<path d="M388.637 602.906C389.573 601.039 382.357 599.149 383.194 597.479C384.031 597.061 386.209 596.227 388.218 596.227C390.731 596.227 391.149 597.479 394.08 598.731C396.425 599.733 398.686 604.575 399.104 605.41C399.523 606.245 414.177 616.264 414.177 617.516C414.177 618.768 412.921 619.186 411.665 618.768C410.409 618.351 407.897 615.011 406.222 614.176C404.547 613.341 398.267 607.08 397.011 606.662L397.011 606.662C395.755 606.245 388.218 603.74 388.637 602.906Z" fill="#C4C4C4" stroke="black"/>
<line y1="-0.5" x2="4.87891" y2="-0.5" transform="matrix(0.858175 -0.513357 0.515635 0.856808 397.43 608.332)" stroke="black"/>
<line y1="-0.5" x2="4.5059" y2="-0.5" transform="matrix(0.857715 -0.514125 0.516404 0.856345 400.103 610.324)" stroke="black"/>
<line y1="-0.5" x2="4.5059" y2="-0.5" transform="matrix(0.857716 -0.514125 0.516405 0.856345 402.454 612.318)" stroke="black"/>
<line y1="-0.5" x2="4.50589" y2="-0.5" transform="matrix(0.857715 -0.514125 0.516404 0.856345 404.805 614.311)" stroke="black"/>
<line y1="-0.5" x2="4.50589" y2="-0.5" transform="matrix(0.857715 -0.514125 0.516404 0.856345 407.478 616.492)" stroke="black"/>
<line y1="-0.5" x2="4.50589" y2="-0.5" transform="matrix(0.857715 -0.514125 0.516404 0.856345 410.152 618.674)" stroke="black"/>
</svg>
